<?xml version="1.0" encoding="iso-8859-1"?>
<!-- Generator: Adobe Illustrator 19.0.0, SVG Export Plug-In . SVG Version: 6.00 Build 0)  -->
<svg version="1.1" id="Capa_1" xmlns="http://www.w3.org/2000/svg" xmlns:xlink="http://www.w3.org/1999/xlink" x="0px" y="0px"
	 viewBox="0 0 512.001 512.001" style="enable-background:new 0 0 512.001 512.001;" xml:space="preserve">
<g>
	<path style="fill:#EDB59E;" d="M319.928,134.728v0.063C320.006,134.788,320.014,134.769,319.928,134.728z"/>
	<path style="fill:#EDB59E;" d="M130.363,116.343c0.744,6.639,5.264,12.247,11.594,14.383l69.558,23.471L186.399,272.82h100.899
		l3.362-15.878c0.798,1.946,1.955,3.782,3.501,5.39c6.584,6.851,17.471,7.062,24.318,0.483l52.571-50.521
		c3.538-3.4,5.456-8.15,5.269-13.055c-0.187-4.904-2.46-9.495-6.245-12.616l-47.475-39.142c-4.579-3.775-10.003-6.389-15.809-7.619
		l-81.001-17.15l-62.46-21.076l-9.662-86.346c-1.056-9.441-9.565-16.243-19.005-15.179c-9.438,1.056-16.235,9.565-15.179,19.004
		L130.363,116.343z M307.101,179.292l26.186,21.585l-38.613,37.107L307.101,179.292z"/>
</g>
<g>
	<path style="fill:#7EADFC;" d="M319.928,134.728v0.063C320.006,134.788,320.014,134.769,319.928,134.728z"/>
	<path style="fill:#7EADFC;" d="M141.958,130.726l69.558,23.471L186.399,272.82h100.899l3.362-15.878
		c0.798,1.946,1.955,3.782,3.501,5.39c3.377,3.514,7.886,5.281,12.402,5.281c4.286-0.001,8.58-1.593,11.915-4.799l52.571-50.521
		c3.538-3.4,5.456-8.15,5.269-13.055c-0.187-4.904-2.46-9.495-6.245-12.616l-47.475-39.142c-4.58-3.775-10.003-6.389-15.809-7.619
		l-17.98-3.807c-2.044,9.663-11.558,17.181-21.439,17.181c-12.237,0-21.299-10.002-21.829-21.829
		c-0.069-1.515,0.056-3.002,0.344-4.441l-20.098-4.256l-62.459-21.075l-2.18-19.482l-33.964,5.784l3.179,28.405
		C131.107,122.982,135.627,128.59,141.958,130.726z M307.101,179.292l26.186,21.585l-38.613,37.107L307.101,179.292z"/>
</g>
<circle style="fill:#EDB59E;" cx="277.565" cy="79.531" r="38.624"/>
<path style="fill:#87AFB9;" d="M337.729,92.64l-16.241-3.439l1.938-9.153c2.5-11.806,0.252-23.877-6.328-33.993
	c-6.579-10.115-16.704-17.063-28.51-19.562c-24.368-5.162-48.394,10.469-53.556,34.839l-1.938,9.153l-16.241-3.44l1.938-9.153
	c7.057-33.325,39.9-54.698,73.236-47.641c16.143,3.418,29.99,12.918,38.988,26.75c8.998,13.832,12.07,30.341,8.652,46.485
	L337.729,92.64z"/>
<g>
	<path style="fill:#DD3E3E;" d="M238.801,50.507c-1.94-1.742-4.228-2.969-6.794-3.513c-9.966-2.111-20.304,6.844-23.089,19.999
		c-2.786,13.156,3.036,25.532,13.002,27.641c2.565,0.543,5.155,0.349,7.634-0.458L238.801,50.507z"/>
	<path style="fill:#DD3E3E;" d="M324.376,68.592c2.48-0.806,5.069-1.002,7.634-0.458c9.966,2.111,15.788,14.486,13.002,27.641
		c-2.786,13.156-13.123,22.11-23.089,19.999c-2.565-0.543-4.854-1.771-6.794-3.513L324.376,68.592z"/>
</g>
<g>
	<path style="fill:#87AFB9;" d="M120.496,511.675H1.445V285.738c0-7.234,5.864-13.097,13.097-13.097h92.856
		c7.234,0,13.097,5.864,13.097,13.097V511.675z"/>
	<path style="fill:#87AFB9;" d="M510.556,512.001H391.504V286.063c0-7.234,5.864-13.097,13.097-13.097h92.856
		c7.234,0,13.097,5.864,13.097,13.097v225.938H510.556z"/>
</g>
<path style="fill:#55696E;" d="M344.759,272.803h-6.265v-3.439H237.779v3.439h-8.669v-3.439h-26.009v3.439h-10.146v-3.439h-26.009
	v3.453c-7.097,0.158-12.804,5.949-12.804,13.083v225.938h203.715V285.901C357.858,278.667,351.993,272.803,344.759,272.803z"/>
<path style="fill:#B03128;" d="M229.11,272.819v-11.607c0-2.139-1.734-3.874-3.874-3.874h-18.262c-2.139,0-3.874,1.734-3.874,3.874
	v11.607H229.11z"/>
<path style="fill:#3C5A73;" d="M338.495,272.819v-16.587c0-2.139-1.734-3.874-3.874-3.874h-92.968c-2.139,0-3.874,1.734-3.874,3.874
	v16.587H338.495z"/>
<path style="fill:#05CDFF;" d="M192.956,272.819v-11.607c0-2.139-1.734-3.874-3.874-3.874h-18.262c-2.139,0-3.874,1.734-3.874,3.874
	v11.607H192.956z"/>
<circle style="fill:#55696E;" cx="60.971" cy="339.766" r="39.567"/>
<circle style="fill:#87AFB9;" cx="60.971" cy="339.766" r="14.665"/>
<circle style="fill:#55696E;" cx="60.971" cy="436.607" r="27.392"/>
<circle style="fill:#87AFB9;" cx="60.971" cy="436.607" r="10.152"/>
<circle style="fill:#55696E;" cx="451.027" cy="336.999" r="39.567"/>
<circle style="fill:#87AFB9;" cx="451.027" cy="336.999" r="14.665"/>
<circle style="fill:#55696E;" cx="451.027" cy="433.84" r="27.392"/>
<circle style="fill:#87AFB9;" cx="451.027" cy="433.84" r="10.152"/>
<rect x="179.019" y="299.48" style="fill:#415050;" width="148.738" height="187.452"/>
<path style="fill:#EDB59E;" d="M325.086,208.758l-30.443,29.255c-6.849,6.581-7.066,17.469-0.484,24.318
	c3.377,3.514,7.886,5.281,12.402,5.281c4.286,0,8.58-1.593,11.915-4.798l32.016-30.768L325.086,208.758z"/>
<g>
</g>
<g>
</g>
<g>
</g>
<g>
</g>
<g>
</g>
<g>
</g>
<g>
</g>
<g>
</g>
<g>
</g>
<g>
</g>
<g>
</g>
<g>
</g>
<g>
</g>
<g>
</g>
<g>
</g>
</svg>
