<?xml version="1.0" encoding="iso-8859-1"?>
<!-- Generator: Adobe Illustrator 19.0.0, SVG Export Plug-In . SVG Version: 6.00 Build 0)  -->
<svg version="1.1" id="Capa_1" xmlns="http://www.w3.org/2000/svg" xmlns:xlink="http://www.w3.org/1999/xlink" x="0px" y="0px"
	 viewBox="0 0 511.999 511.999" style="enable-background:new 0 0 511.999 511.999;" xml:space="preserve">
<circle style="fill:#41CDE0;" cx="55.609" cy="364.211" r="48.094"/>
<g>
	<circle style="fill:#DE6B5D;" cx="183.859" cy="235.96" r="48.094"/>
	<circle style="fill:#DE6B5D;" cx="456.391" cy="147.788" r="48.094"/>
</g>
<circle style="fill:#41CDE0;" cx="344.172" cy="308.101" r="48.094"/>
<circle style="fill:#7BE1E8;" cx="55.609" cy="364.211" r="24.047"/>
<circle style="fill:#FF8C78;" cx="183.859" cy="235.96" r="24.047"/>
<circle style="fill:#7BE1E8;" cx="344.172" cy="308.101" r="24.047"/>
<circle style="fill:#FF8C78;" cx="456.391" cy="147.788" r="24.047"/>
<path d="M456.391,92.18c-30.663,0-55.609,24.946-55.609,55.609c0,15.693,6.545,29.877,17.035,39.998l-49.249,70.356
	c-7.371-3.614-15.65-5.65-24.397-5.65c-19.19,0-36.141,9.772-46.138,24.601l-60.347-27.156c1.161-4.468,1.781-9.151,1.781-13.977
	c0-30.663-24.946-55.609-55.609-55.609s-55.61,24.946-55.61,55.609c0,12.114,3.906,23.327,10.507,32.47l-50.679,50.678
	c-9.143-6.602-20.356-10.507-32.469-10.507C24.946,308.602,0,333.548,0,364.211s24.946,55.609,55.609,55.609
	s55.609-24.946,55.609-55.609c0-13.139-4.591-25.22-12.239-34.747l50.134-50.134c9.527,7.648,21.608,12.239,34.747,12.239
	c20.508,0,38.446-11.168,48.086-27.733l59.459,26.756c-1.833,5.51-2.841,11.392-2.841,17.509c0,30.663,24.946,55.609,55.609,55.609
	s55.609-24.946,55.609-55.609c0-16.525-7.254-31.381-18.736-41.576l48.885-69.837c7.873,4.277,16.888,6.709,26.46,6.709
	c30.663,0,55.609-24.946,55.609-55.609S487.054,92.18,456.391,92.18z M55.609,404.79c-22.376,0-40.579-18.204-40.579-40.579
	s18.204-40.579,40.579-40.579s40.579,18.204,40.579,40.579S77.984,404.79,55.609,404.79z M183.859,276.54
	c-22.376,0-40.579-18.204-40.579-40.579s18.204-40.579,40.579-40.579s40.579,18.204,40.579,40.579S206.235,276.54,183.859,276.54z
	 M384.751,308.101c0,22.376-18.204,40.579-40.579,40.579s-40.579-18.204-40.579-40.579s18.204-40.579,40.579-40.579
	S384.751,285.726,384.751,308.101z M456.391,188.367c-7.901,0-15.277-2.277-21.519-6.2c-0.534-0.947-1.276-1.796-2.226-2.462
	c-0.842-0.589-1.763-0.981-2.708-1.186c-8.64-7.447-14.126-18.457-14.126-30.731c0-22.376,18.204-40.579,40.579-40.579
	s40.579,18.204,40.579,40.579S478.767,188.367,456.391,188.367z"/>
<g>
</g>
<g>
</g>
<g>
</g>
<g>
</g>
<g>
</g>
<g>
</g>
<g>
</g>
<g>
</g>
<g>
</g>
<g>
</g>
<g>
</g>
<g>
</g>
<g>
</g>
<g>
</g>
<g>
</g>
</svg>
