<?xml version="1.0" encoding="utf-8"?>
<!-- Generator: Adobe Illustrator 22.1.0, SVG Export Plug-In . SVG Version: 6.00 Build 0)  -->
<svg version="1.1" id="Layer_1" xmlns="http://www.w3.org/2000/svg" xmlns:xlink="http://www.w3.org/1999/xlink" x="0px" y="0px"
	 viewBox="0 0 100 112" style="enable-background:new 0 0 100 112;" xml:space="preserve">
<style type="text/css">
	.st0{fill:#E8F4FA;}
	.st1{fill:#F0C23B;}
	.st2{fill:#EC9E49;}
	.st3{fill:#92C647;}
	.st4{fill:#35B3E5;}
	.st5{fill:#58C0C3;}
	.st6{fill:#F06B5A;}
	.st7{fill:#A387BA;}
	.st8{fill:#F162A2;}
	.st9{opacity:0.25;fill:#FFFFFF;}
	.st10{fill:none;stroke:#191816;stroke-miterlimit:10;}
	.st11{display:none;}
	.st12{display:inline;}
	.st13{fill:none;stroke:#8C6CAB;stroke-linecap:round;stroke-miterlimit:10;}
	.st14{fill:none;stroke:#ECB31E;stroke-linecap:round;stroke-miterlimit:10;}
	.st15{fill:none;stroke:#DC4A8B;stroke-linecap:round;stroke-miterlimit:10;}
	.st16{fill:none;stroke:#7AB630;stroke-linecap:round;stroke-miterlimit:10;}
	.st17{fill:none;stroke:#E78625;stroke-linecap:round;stroke-miterlimit:10;}
	.st18{fill:none;stroke:#00A0DE;stroke-linecap:round;stroke-miterlimit:10;}
	.st19{fill:none;stroke:#DD5142;stroke-linecap:round;stroke-miterlimit:10;}
	.st20{fill:none;stroke:#02AFB6;stroke-linecap:round;stroke-miterlimit:10;}
	.st21{fill:#FFA694;}
	.st22{fill:#FFCEBF;}
	.st23{fill:#FF866D;}
	.st24{fill:none;stroke:#191816;stroke-linecap:round;stroke-miterlimit:10;}
	.st25{fill:none;stroke:#FFFFFF;stroke-width:0.75;stroke-linecap:round;stroke-linejoin:round;}
</style>
<circle class="st0" cx="50" cy="56" r="40"/>
<g>
	<circle class="st1" cx="86.2" cy="56" r="10.3"/>
</g>
<g>
	<circle class="st2" cx="75.6" cy="30.4" r="10.3"/>
</g>
<g>
	<circle class="st3" cx="75.6" cy="81.6" r="10.3"/>
</g>
<g>
	<circle class="st4" cx="24.4" cy="81.6" r="10.3"/>
</g>
<g>
	<circle class="st5" cx="50" cy="92.2" r="10.3"/>
</g>
<g>
	<circle class="st6" cx="50" cy="19.8" r="10.3"/>
</g>
<g>
	<circle class="st7" cx="13.8" cy="56" r="10.3"/>
</g>
<g>
	<circle class="st8" cx="24.4" cy="30.4" r="10.3"/>
</g>
<path class="st9" d="M86.2,49.7c5,0,9.2,3.6,10.1,8.3c0.1-0.6,0.2-1.3,0.2-2c0-5.7-4.6-10.3-10.3-10.3c-5.7,0-10.3,4.6-10.3,10.3
	c0,0.7,0.1,1.4,0.2,2C77,53.3,81.2,49.7,86.2,49.7z"/>
<path class="st9" d="M75.6,24.1c5,0,9.2,3.6,10.1,8.3c0.1-0.6,0.2-1.3,0.2-2c0-5.7-4.6-10.3-10.3-10.3s-10.3,4.6-10.3,10.3
	c0,0.7,0.1,1.4,0.2,2C66.4,27.7,70.6,24.1,75.6,24.1z"/>
<path class="st9" d="M75.6,75.3c5,0,9.2,3.6,10.1,8.3c0.1-0.6,0.2-1.3,0.2-2c0-5.7-4.6-10.3-10.3-10.3s-10.3,4.6-10.3,10.3
	c0,0.7,0.1,1.4,0.2,2C66.4,78.9,70.6,75.3,75.6,75.3z"/>
<path class="st9" d="M24.4,75.3c5,0,9.2,3.6,10.1,8.3c0.1-0.6,0.2-1.3,0.2-2c0-5.7-4.6-10.3-10.3-10.3s-10.3,4.6-10.3,10.3
	c0,0.7,0.1,1.4,0.2,2C15.2,78.9,19.4,75.3,24.4,75.3z"/>
<path class="st9" d="M50,85.9c5,0,9.2,3.6,10.1,8.3c0.1-0.6,0.2-1.3,0.2-2c0-5.7-4.6-10.3-10.3-10.3s-10.3,4.6-10.3,10.3
	c0,0.7,0.1,1.4,0.2,2C40.8,89.5,45,85.9,50,85.9z"/>
<path class="st9" d="M50,13.5c5,0,9.2,3.6,10.1,8.3c0.1-0.6,0.2-1.3,0.2-2c0-5.7-4.6-10.3-10.3-10.3s-10.3,4.6-10.3,10.3
	c0,0.7,0.1,1.4,0.2,2C40.8,17.1,45,13.5,50,13.5z"/>
<path class="st9" d="M13.8,49.7c5,0,9.2,3.6,10.1,8.3c0.1-0.6,0.2-1.3,0.2-2c0-5.7-4.6-10.3-10.3-10.3C8.1,45.7,3.5,50.3,3.5,56
	c0,0.7,0.1,1.4,0.2,2C4.6,53.3,8.8,49.7,13.8,49.7z"/>
<path class="st9" d="M24.4,24.1c5,0,9.2,3.6,10.1,8.3c0.1-0.6,0.2-1.3,0.2-2c0-5.7-4.6-10.3-10.3-10.3s-10.3,4.6-10.3,10.3
	c0,0.7,0.1,1.4,0.2,2C15.2,27.7,19.4,24.1,24.4,24.1z"/>
<g>
	<circle class="st10" cx="86.2" cy="56" r="10.3"/>
</g>
<g>
	<circle class="st10" cx="75.6" cy="30.4" r="10.3"/>
</g>
<g>
	<circle class="st10" cx="75.6" cy="81.6" r="10.3"/>
</g>
<g>
	<circle class="st10" cx="24.4" cy="81.6" r="10.3"/>
</g>
<g>
	<circle class="st10" cx="50" cy="92.2" r="10.3"/>
</g>
<g>
	<circle class="st10" cx="50" cy="19.8" r="10.3"/>
</g>
<g>
	<circle class="st10" cx="13.8" cy="56" r="10.3"/>
</g>
<g>
	<circle class="st10" cx="24.4" cy="30.4" r="10.3"/>
</g>
<line class="st10" x1="50" y1="39.4" x2="50" y2="30.4"/>
<line class="st10" x1="50" y1="81.6" x2="50" y2="72.6"/>
<line class="st10" x1="61.7" y1="44.3" x2="68.1" y2="37.9"/>
<line class="st10" x1="31.9" y1="74.1" x2="38.3" y2="67.7"/>
<line class="st10" x1="66.6" y1="56" x2="75.6" y2="56"/>
<line class="st10" x1="24.4" y1="56" x2="33.4" y2="56"/>
<line class="st10" x1="61.7" y1="67.7" x2="68.1" y2="74.1"/>
<line class="st10" x1="31.9" y1="37.9" x2="38.3" y2="44.3"/>
<g class="st11">
	<g class="st12">
		<g>
			<circle class="st13" cx="14.3" cy="56" r="1.8"/>
			<path class="st13" d="M20.2,55.8c-0.6-0.7-3-3.2-5.9-3.2S9,55.2,8.4,55.8c-0.1,0.1-0.1,0.2,0,0.3c0.6,0.7,3,3.2,5.9,3.2
				s5.3-2.5,5.9-3.2C20.3,56.1,20.3,55.9,20.2,55.8z"/>
		</g>
	</g>
	<g class="st12">
		<g>
			<line class="st14" x1="84.7" y1="60" x2="82.7" y2="58"/>
			<line class="st14" x1="82.7" y1="60" x2="84.7" y2="58"/>
			<line class="st14" x1="83.7" y1="52.8" x2="83.7" y2="55.3"/>
			<line class="st14" x1="85" y1="54" x2="82.5" y2="54"/>
			<line class="st14" x1="88.5" y1="54" x2="91" y2="54"/>
			<line class="st14" x1="88.5" y1="59.5" x2="91" y2="59.5"/>
			<line class="st14" x1="88.5" y1="59.5" x2="91" y2="59.5"/>
			<line class="st14" x1="88.5" y1="58.5" x2="91" y2="58.5"/>
			<line class="st14" x1="86.7" y1="51" x2="86.7" y2="62"/>
			<line class="st14" x1="81.2" y1="56.5" x2="92.2" y2="56.5"/>
			<path class="st14" d="M82.7,51h8c0.8,0,1.5,0.7,1.5,1.5v8c0,0.8-0.7,1.5-1.5,1.5h-8c-0.8,0-1.5-0.7-1.5-1.5v-8
				C81.2,51.7,81.9,51,82.7,51z"/>
		</g>
	</g>
	<g class="st12">
		<g>
			<path class="st15" d="M24.5,34.2c-0.4,0-0.7-0.3-0.7-0.7v-3.7c0-0.4,0.3-0.7,0.7-0.7h5.1c0.4,0,0.7,0.3,0.7,0.7v3.7
				c0,0.4-0.3,0.7-0.7,0.7h-0.7v2.2l-2.2-2.2H24.5z"/>
			<path class="st15" d="M22.3,31.3l-1.5,1.5v-2.2h-0.7c-0.4,0-0.7-0.3-0.7-0.7v-3.7c0-0.4,0.3-0.7,0.7-0.7h5.1
				c0.4,0,0.7,0.3,0.7,0.7v1.5"/>
		</g>
	</g>
	<g class="st12">
		<g>
			<path class="st16" d="M75.2,86.6c-2,0-3.7-1.6-3.7-3.7c0-5.3,6.4-2.6,9.5-5.2c0.1-0.1,0.2-0.1,0.2,0c0.1,0,0.1,0.1,0.1,0.2
				C82.4,83.4,78.3,86.6,75.2,86.6z"/>
			<path class="st16" d="M76.7,81.9c-1.5,0.4-3,1.1-4.2,2.1l-1.9,1.6"/>
		</g>
	</g>
	<g class="st12">
		<g>
			<circle class="st17" cx="72.4" cy="28" r="1.1"/>
			<path class="st17" d="M72.4,29.8c-1,0-1.8,0.8-1.8,1.8v1.1h0.7l0.4,2.9h1.5"/>
			<circle class="st17" cx="79.8" cy="28" r="1.1"/>
			<path class="st17" d="M79.8,29.8c1,0,1.8,0.8,1.8,1.8v1.1h-0.7l-0.4,2.9H79"/>
			<circle class="st17" cx="76.1" cy="26.9" r="1.5"/>
			<path class="st17" d="M78.7,31.6c0-1.4-1.1-2.6-2.6-2.6c-1.4,0-2.6,1.1-2.6,2.6v1.1h1.1l0.4,3.7h2.2l0.4-3.7h1.1V31.6z"/>
		</g>
	</g>
	<g class="st12">
		<g>
			<circle class="st18" cx="23.3" cy="85.6" r="2"/>
			<line class="st18" x1="25.3" y1="85.6" x2="25.3" y2="76.6"/>
			<path class="st18" d="M25.3,77.3l1.9,1.1c1.3,1,1.6,2.4,0.9,3.6l0,0"/>
		</g>
	</g>
	<g class="st12">
		<g>
			<circle class="st19" cx="53.8" cy="16" r="1.2"/>
			<path class="st19" d="M49.4,22.4l0.6,1.1h-2.1c-0.4,0-0.7,0.3-0.7,0.7c0,0.4,0.3,0.7,0.7,0.7h2.5c0.7,0,1.2-0.5,1.2-1.2
				c0-0.2-0.1-0.4-0.2-0.6l-1-1.7c0.5-0.5,0.9-0.9,1.3-1.3v0.4c0,0.8,0.6,1.5,1.4,1.7l2.1,0.3c0.4,0.1,0.8-0.2,0.8-0.6
				c0,0,0,0,0-0.1c0-0.4-0.3-0.7-0.6-0.8l-1.8-0.3c-0.2,0-0.4-0.2-0.4-0.5v-0.4c0-1-0.6-1.9-1.5-2.3l0,0c-0.9-0.4-2-0.5-3-0.1
				L47.2,18c-0.3,0.1-0.6,0.5-0.5,0.8c0.1,0.4,0.4,0.7,0.8,0.6c0,0,0.1,0,0.1,0l1.5-0.5c0.6-0.2,1.2-0.2,1.8,0
				c-0.9,0.8-2.5,2.5-5.6,5.7c-0.3,0.3-0.3,0.7-0.1,1c0.3,0.3,0.7,0.3,1,0.1c0,0,0,0,0,0l0.3-0.3"/>
		</g>
	</g>
	<g class="st12">
		<g>
			<circle class="st20" cx="50.5" cy="88.7" r="1.5"/>
			<path class="st20" d="M53.1,93.4c0-1.4-1.1-2.6-2.6-2.6s-2.6,1.1-2.6,2.6v1.1H49l0.4,3.7h2.2l0.4-3.7h1.1V93.4z"/>
		</g>
	</g>
</g>
<g>
	<path class="st21" d="M44.4,44.8c0,0,2.8-3.1,5.6-1.2v23.4c-1.2,2.8-5.6,2.8-7,0.3c-3.9-1.9-2.4-4.5-2.4-4.5
		c-2.9-1.3-2.8-3.9-1.4-5.3c-1-0.8-1.3-3.1,0.4-4.2c0,0-1.2-4.1,2.6-4.9C42,45.4,43.3,44.8,44.4,44.8z"/>
	<path class="st21" d="M55.6,44.8c0,0-2.8-3.1-5.6-1.2v23.4c1.2,2.8,5.6,2.8,7,0.3c3.9-1.9,2.4-4.5,2.4-4.5c2.9-1.3,2.8-3.9,1.4-5.3
		c1-0.8,1.3-3.1-0.4-4.2c0,0,1.2-4.1-2.6-4.9C58,45.4,56.7,44.8,55.6,44.8z"/>
	<path class="st22" d="M60.5,52.1c0.1-1.3-0.3-3.2-2.8-3.8c0.3-2.9-1-3.6-2-3.6c0,0-2.8-3.1-5.6-1.2v3.2
		C54.6,46.8,58.5,48.9,60.5,52.1z"/>
	<path class="st23" d="M50,66v0.9c1.2,2.8,5.6,2.8,7,0.3c3.9-1.9,2.4-4.5,2.4-4.5c2.3-1,2.7-2.9,2.1-4.3C60.3,62.8,55.6,66,50,66z"
		/>
	<path class="st22" d="M50,46.8v-3.2c-2.8-1.9-5.6,1.2-5.6,1.2c-1,0-2.3,0.7-2,3.6c-2.5,0.5-2.9,2.5-2.8,3.8
		C41.5,48.9,45.4,46.8,50,46.8z"/>
	<path class="st23" d="M38.6,58.5c-0.7,1.4-0.2,3.2,2.1,4.3c0,0-1.5,2.6,2.4,4.5c1.4,2.5,5.8,2.5,7-0.3V66
		C44.4,66,39.7,62.8,38.6,58.5z"/>
	<g>
		<path class="st24" d="M43,62.2c2.1,0,3.8,1.4,3.4,3.8"/>
		<path class="st24" d="M44.4,62.4c-0.1-2.7,1.4-3.8,3.3-3.9"/>
		<path class="st24" d="M41.8,51.5c0.1,3.1,3.2,4.4,5.8,2.4"/>
		<path class="st24" d="M44.8,54.9c-0.1,2.3-1.5,2.6-2.1,2.5"/>
		<path class="st24" d="M48.1,48.3c1.3,0.3,1.9,0.4,1.9,1.6"/>
		<path class="st24" d="M44.4,44.8c0,0,2.8-3.1,5.6-1.2v23.4c-1.2,2.8-5.6,2.8-7,0.3c-3.9-1.9-2.4-4.5-2.4-4.5
			c-2.9-1.3-2.8-3.9-1.4-5.3c-1-0.8-1.3-3.1,0.4-4.2c0,0-1.2-4.1,2.6-4.9C42,45.4,43.3,44.8,44.4,44.8z"/>
		<path class="st24" d="M46.8,46.2"/>
		<path class="st24" d="M44.4,44.8c1.8,0,2.5,1.4,2.5,1.4"/>
		<path class="st24" d="M42.3,48.3c2.5-0.4,3.9,2.4,3.7,3.6"/>
		<path class="st24" d="M39.3,57.4c1.7,1.4,3.1,1.3,3.1,1.3"/>
		<path class="st24" d="M57,62.2c-2.1,0-3.8,1.4-3.4,3.8"/>
		<path class="st24" d="M55.6,62.4c0.1-2.7-1.4-3.8-3.3-3.9"/>
		<path class="st24" d="M58.2,51.5c-0.1,3.1-3.2,4.4-5.8,2.4"/>
		<path class="st24" d="M55.2,54.9c0.1,2.3,1.5,2.6,2.1,2.5"/>
		<path class="st24" d="M51.9,50.3c-1.3,0.3-1.9,0.4-1.9,1.6"/>
		<path class="st24" d="M55.6,44.8c0,0-2.8-3.1-5.6-1.2v23.4c1.2,2.8,5.6,2.8,7,0.3c3.9-1.9,2.4-4.5,2.4-4.5
			c2.9-1.3,2.8-3.9,1.4-5.3c1-0.8,1.3-3.1-0.4-4.2c0,0,1.2-4.1-2.6-4.9C58,45.4,56.7,44.8,55.6,44.8z"/>
		<path class="st24" d="M53.2,46.2"/>
		<path class="st24" d="M55.6,44.8c-1.8,0-2.5,1.4-2.5,1.4"/>
		<path class="st24" d="M57.7,48.3c-2.5-0.4-3.9,2.4-3.7,3.6"/>
		<path class="st24" d="M60.7,57.4c-1.7,1.4-3.1,1.3-3.1,1.3"/>
	</g>
</g>
<g>
	<g>
		<title>view-1</title>
		<circle class="st25" cx="13.8" cy="55.5" r="1.8"/>
		<path class="st25" d="M19.7,55.3c-0.6-0.7-3-3.2-5.9-3.2s-5.3,2.5-5.9,3.2c-0.1,0.1-0.1,0.2,0,0.3c0.6,0.7,3,3.2,5.9,3.2
			s5.3-2.5,5.9-3.2C19.8,55.6,19.8,55.4,19.7,55.3z"/>
	</g>
	<g>
		<line class="st25" x1="84.2" y1="59.5" x2="82.2" y2="57.5"/>
		<line class="st25" x1="82.2" y1="59.5" x2="84.2" y2="57.5"/>
		<line class="st25" x1="83.2" y1="52.3" x2="83.2" y2="54.8"/>
		<line class="st25" x1="84.5" y1="53.5" x2="82" y2="53.5"/>
		<line class="st25" x1="88" y1="53.5" x2="90.5" y2="53.5"/>
		<line class="st25" x1="88" y1="59" x2="90.5" y2="59"/>
		<line class="st25" x1="88" y1="59" x2="90.5" y2="59"/>
		<line class="st25" x1="88" y1="58" x2="90.5" y2="58"/>
		<line class="st25" x1="86.2" y1="50.5" x2="86.2" y2="61.5"/>
		<line class="st25" x1="80.7" y1="56" x2="91.7" y2="56"/>
		<path class="st25" d="M82.2,50.5h8c0.8,0,1.5,0.7,1.5,1.5v8c0,0.8-0.7,1.5-1.5,1.5h-8c-0.8,0-1.5-0.7-1.5-1.5v-8
			C80.7,51.2,81.4,50.5,82.2,50.5z"/>
	</g>
	<g>
		<path class="st25" d="M24,33.7c-0.4,0-0.7-0.3-0.7-0.7v-3.7c0-0.4,0.3-0.7,0.7-0.7h5.1c0.4,0,0.7,0.3,0.7,0.7V33
			c0,0.4-0.3,0.7-0.7,0.7h-0.7v2.2l-2.2-2.2H24z"/>
		<path class="st25" d="M21.8,30.8l-1.5,1.5V30h-0.7c-0.4,0-0.7-0.3-0.7-0.7v-3.7c0-0.4,0.3-0.7,0.7-0.7h5.1c0.4,0,0.7,0.3,0.7,0.7
			v1.5"/>
	</g>
	<g>
		<path class="st25" d="M74.7,86c-2,0-3.7-1.6-3.7-3.7c0-5.3,6.4-2.6,9.5-5.2c0.1-0.1,0.2-0.1,0.2,0c0.1,0,0.1,0.1,0.1,0.2
			C81.9,82.9,77.8,86,74.7,86z"/>
		<path class="st25" d="M76.2,81.4c-1.5,0.4-3,1.1-4.2,2.1l-1.9,1.6"/>
	</g>
	<g>
		<circle class="st25" cx="71.9" cy="27.5" r="1.1"/>
		<path class="st25" d="M71.9,29.3c-1,0-1.8,0.8-1.8,1.8v1.1h0.7l0.4,2.9h1.5"/>
		<circle class="st25" cx="79.3" cy="27.5" r="1.1"/>
		<path class="st25" d="M79.3,29.3c1,0,1.8,0.8,1.8,1.8v1.1h-0.7L80,35.2h-1.5"/>
		<circle class="st25" cx="75.6" cy="26.4" r="1.5"/>
		<path class="st25" d="M78.2,31.1c0-1.4-1.1-2.6-2.6-2.6S73,29.7,73,31.1v1.1h1.1l0.4,3.7h2.2l0.4-3.7h1.1V31.1z"/>
	</g>
	<g>
		<circle class="st25" cx="22.8" cy="85.1" r="2"/>
		<line class="st25" x1="24.8" y1="85.1" x2="24.8" y2="76.1"/>
		<path class="st25" d="M24.8,76.8l1.9,1.1c1.3,1,1.6,2.4,0.9,3.6l0,0"/>
	</g>
	<g>
		<circle class="st25" cx="53.3" cy="15.5" r="1.2"/>
		<path class="st25" d="M48.9,21.9l0.6,1.1h-2.1c-0.4,0-0.7,0.3-0.7,0.7s0.3,0.7,0.7,0.7h2.5c0.7,0,1.2-0.5,1.2-1.2
			c0-0.2-0.1-0.4-0.2-0.6l-1-1.7c0.5-0.5,0.9-0.9,1.3-1.3v0.4c0,0.8,0.6,1.5,1.4,1.7l2.1,0.3c0.4,0.1,0.8-0.2,0.8-0.6c0,0,0,0,0-0.1
			c0-0.4-0.3-0.7-0.6-0.8L53,20.2c-0.2,0-0.4-0.2-0.4-0.5v-0.4c0-1-0.6-1.9-1.5-2.3l0,0c-0.9-0.4-2-0.5-3-0.1l-1.5,0.5
			c-0.3,0.1-0.6,0.5-0.5,0.8c0.1,0.4,0.4,0.7,0.8,0.6c0,0,0.1,0,0.1,0l1.5-0.5c0.6-0.2,1.2-0.2,1.8,0c-0.9,0.8-2.5,2.5-5.6,5.7
			c-0.3,0.3-0.3,0.7-0.1,1c0.3,0.3,0.7,0.3,1,0.1c0,0,0,0,0,0l0.3-0.3"/>
	</g>
	<g>
		<circle class="st25" cx="50" cy="88.2" r="1.5"/>
		<path class="st25" d="M52.6,92.9c0-1.4-1.1-2.6-2.6-2.6s-2.6,1.1-2.6,2.6V94h1.1l0.4,3.7h2.2l0.4-3.7h1.1V92.9z"/>
	</g>
</g>
</svg>
